<svg width="161" height="54" viewBox="0 0 161 54" fill="none" xmlns="http://www.w3.org/2000/svg">
<g filter="url(#filter0_d_406_243)">
<path fill-rule="evenodd" clip-rule="evenodd" d="M4 14.815L6.21379 3.56396H29.49L27.4251 14.815H21.8191L17.9836 34.3238C17.9337 34.5141 17.9173 34.7197 17.9173 34.94C17.9173 35.4245 18.0155 36.348 18.7368 36.348C19.8351 36.348 20.9007 35.6008 21.8183 35.1603L19.2773 45.2228C17.4087 45.6487 15.5236 46 13.5732 46C8.88554 46 4.34429 44.6952 4.34429 39.8542C4.34429 39.751 4.34429 39.6485 4.37782 39.5453L9.2462 14.8157H4V14.815Z" fill="white"/>
<path fill-rule="evenodd" clip-rule="evenodd" d="M56.6833 24.1296L37.8003 35.2042C38.9804 36.2602 40.2594 37.1984 42.0128 37.1984C46.7994 37.1984 50.356 33.1646 53.3066 30.3047L51.061 41.702C46.8975 44.3717 41.6522 45.8668 36.5213 45.8668C28.3089 45.8668 22.6865 39.781 22.6865 32.7094C22.6865 23.0428 33.3899 13.1567 44.2904 13.1567C47.8805 13.1567 51.2899 14.7118 53.5847 17.1465C55.5523 19.2447 56.519 21.4445 56.6833 24.1296ZM53.3884 45.2221L59.6168 13.5387H72.1562C72.1071 14.1256 72.058 14.7125 72.058 15.2841C72.058 15.8271 72.206 16.3401 72.3696 16.8538C74.4026 14.8296 77.2543 13.1428 80.3849 13.1428C84.8926 13.1428 88.9579 16.0766 88.9579 20.2568C88.9579 20.7698 88.908 21.2835 88.8107 21.7819L84.1885 45.2221H71.3539L75.2556 25.4644C75.2883 25.2727 75.3047 25.097 75.3047 24.9068C75.3047 23.7622 74.2391 22.9257 72.9772 22.9257C71.6009 22.9257 70.6988 23.9232 70.4698 25.067L66.3228 45.2221H53.3884ZM85.6809 45.2221L91.9265 13.5387H104.481V14.272C104.481 15.328 104.696 16.1937 105.35 17.0741C106.088 16.2376 106.907 15.4458 107.941 14.8889C110.203 13.7004 113.071 13.1435 115.676 13.1435C116.726 13.1435 117.628 13.4077 118.579 13.8036C119.365 15.8424 120.644 17.4115 122.233 19.0105L117.071 45.2228H104.038L107.891 25.6993C107.941 25.4351 107.956 25.1702 107.956 24.9075C107.956 23.7768 107.3 22.7647 105.891 22.7647C104.449 22.7647 103.515 23.9239 103.284 25.0978L99.3006 45.2228H85.6809V45.2221ZM118.628 45.2221L123.61 19.9048C125.84 21.5916 127.855 22.3981 130.807 22.3981C132.528 22.3981 134.184 22.0461 135.838 21.6502L131.2 45.2221H118.628Z" fill="white"/>
<path fill-rule="evenodd" clip-rule="evenodd" d="M124.544 19.0098C125.808 18.687 127.069 18.3789 128.397 18.3789C130.741 18.3789 132.873 19.4642 134.888 20.4324C133.609 20.7991 132.281 21.1803 130.939 21.1803C128.528 21.1811 126.463 20.2568 124.544 19.0098ZM121.299 15.9442C120.218 14.272 119.218 12.5412 119.218 10.5609C119.218 7.67093 120.939 5.44181 123.037 3.40296C126.791 5.92628 130.431 7.42212 135.216 7.42212C137.447 7.42212 139.593 6.87984 141.708 6.27828C142.478 7.6424 143.232 9.07969 143.232 10.6348C143.232 13.5826 141.544 16.0027 139.364 18.1008C136.135 16.1798 132.693 14.5222 128.693 14.5222C126.136 14.5215 123.693 15.2248 121.299 15.9442ZM126.921 1.05602C128.431 0.49837 129.938 0 131.577 0C134.478 0 136.839 0.777197 138.987 2.52259C137.675 3.10951 136.347 3.60787 134.855 3.60787C131.889 3.60787 129.266 2.64041 126.921 1.05602ZM132.823 44.049L134.969 33.2232C135.822 34.045 138.035 36.3919 139.526 36.3919C140.657 36.3919 140.854 34.7636 140.854 34.045C140.854 32.9443 140.575 31.9322 139.821 31.0233C138.165 29.0437 136.034 27.283 136.034 24.6287C136.034 23.5426 136.296 22.472 136.576 21.4306C140.361 19.9494 142.444 17.5286 143.607 14.0378H157L155.115 23.6312C154.197 22.7647 153.116 21.7533 151.689 21.7533C150.426 21.7533 149.493 23.0004 149.493 24.0271C149.493 25.6108 150.378 27.3862 151.524 28.5739L153.606 30.7167C154.606 31.7427 155.082 33.1068 155.082 34.4555C155.082 36.9942 153.459 39.4136 151.608 41.2337C148.459 44.3139 145.279 45.296 140.591 45.296C137.904 45.2953 135.38 44.7676 132.823 44.049Z" fill="white"/>
<path fill-rule="evenodd" clip-rule="evenodd" d="M34.9807 30.0998C38.2748 29.2479 43.2912 25.1702 44.0125 22.1632C43.4548 22.0461 42.8815 21.9283 42.3082 21.9283C38.9806 21.9283 34.7681 25.3752 34.7681 28.3968C34.7681 28.9691 34.8662 29.5421 34.9807 30.0998Z" fill="white"/>
</g>
<defs>
<filter id="filter0_d_406_243" x="0" y="0" width="161" height="54" filterUnits="userSpaceOnUse" color-interpolation-filters="sRGB">
<feFlood flood-opacity="0" result="BackgroundImageFix"/>
<feColorMatrix in="SourceAlpha" type="matrix" values="0 0 0 0 0 0 0 0 0 0 0 0 0 0 0 0 0 0 127 0" result="hardAlpha"/>
<feOffset dy="4"/>
<feGaussianBlur stdDeviation="2"/>
<feComposite in2="hardAlpha" operator="out"/>
<feColorMatrix type="matrix" values="0 0 0 0 0 0 0 0 0 0 0 0 0 0 0 0 0 0 0.25 0"/>
<feBlend mode="normal" in2="BackgroundImageFix" result="effect1_dropShadow_406_243"/>
<feBlend mode="normal" in="SourceGraphic" in2="effect1_dropShadow_406_243" result="shape"/>
</filter>
</defs>
</svg>
