<svg width="69" height="20" viewBox="0 0 69 20" fill="none" xmlns="http://www.w3.org/2000/svg">
<path d="M5.06602 15.0488C5.06602 16.0514 5.31992 16.7643 5.82774 17.1875C6.33555 17.6172 6.89219 17.8678 7.49766 17.9395V19.082C6.3388 18.9648 5.37852 18.623 4.6168 18.0566C3.86159 17.4967 3.48399 16.5723 3.48399 15.2832V13.2715C3.48399 12.5618 3.37331 12.002 3.15195 11.5918C2.74831 10.8431 1.97357 10.4069 0.827736 10.2832V9.16992C1.98008 9.0332 2.75482 8.60677 3.15195 7.89062C3.37331 7.49349 3.48399 6.92383 3.48399 6.18164V4.58984C3.48399 3.36589 3.74766 2.39583 4.275 1.67969C4.80886 0.963542 5.88307 0.537109 7.49766 0.400391V1.51367C6.44948 1.60482 5.73985 2.06706 5.36875 2.90039C5.16693 3.35612 5.06602 3.98763 5.06602 4.79492V5.88867C5.06602 6.86523 4.94557 7.61393 4.70469 8.13477C4.26849 9.07878 3.42214 9.60938 2.16563 9.72656C3.41563 9.83724 4.26198 10.3841 4.70469 11.3672C4.94557 11.9076 5.06602 12.6432 5.06602 13.5742V15.0488ZM10.0508 0.654297H12.3457L19.5918 12.2754V0.654297H21.4375V15H19.2598L11.9063 3.38867V15H10.0508V0.654297ZM25.7973 4.67773H27.8383V6.80664H25.7973V4.67773ZM25.7973 12.8711H27.8383V15H25.7973V12.8711ZM39.2922 1.43555C38.9341 1.49414 38.6607 1.69596 38.4719 2.04102C38.2896 2.38607 38.1984 2.78646 38.1984 3.24219C38.1984 3.28125 38.1984 3.32031 38.1984 3.35938C38.205 3.39193 38.2147 3.43099 38.2277 3.47656H39.2922V5.60547H37.2023V3.64258C37.2023 2.86784 37.3651 2.17773 37.6906 1.57227C38.0161 0.960286 38.55 0.608724 39.2922 0.517578V1.43555ZM49.1598 7.22656C50.0712 7.22656 50.7906 7.04427 51.318 6.67969C51.8518 6.3151 52.1188 5.65755 52.1188 4.70703C52.1188 3.6849 51.7477 2.98828 51.0055 2.61719C50.6083 2.42188 50.0777 2.32422 49.4137 2.32422H44.6676V7.22656H49.1598ZM42.7242 0.654297H49.3648C50.4586 0.654297 51.3603 0.813802 52.0699 1.13281C53.4176 1.74479 54.0914 2.87435 54.0914 4.52148C54.0914 5.38086 53.9124 6.08398 53.5543 6.63086C53.2027 7.17773 52.7079 7.61719 52.0699 7.94922C52.6298 8.17708 53.0497 8.47656 53.3297 8.84766C53.6161 9.21875 53.7757 9.82096 53.8082 10.6543L53.8766 12.5781C53.8961 13.125 53.9417 13.5319 54.0133 13.7988C54.1305 14.2546 54.3388 14.5475 54.6383 14.6777V15H52.2555C52.1904 14.8763 52.1383 14.7168 52.0992 14.5215C52.0602 14.3262 52.0276 13.9486 52.0016 13.3887L51.8844 10.9961C51.8388 10.0586 51.4905 9.43034 50.8395 9.11133C50.4684 8.93555 49.8857 8.84766 49.0914 8.84766H44.6676V15H42.7242V0.654297ZM57.6797 4.82422C58.0378 4.76562 58.3079 4.5638 58.4902 4.21875C58.679 3.8737 58.7734 3.47656 58.7734 3.02734C58.7734 2.98177 58.7702 2.94271 58.7637 2.91016C58.7637 2.87109 58.7572 2.82878 58.7441 2.7832H57.6797V0.654297H59.7695V2.61719C59.7695 3.45052 59.597 4.16016 59.252 4.74609C58.9069 5.32552 58.3828 5.65755 57.6797 5.74219V4.82422ZM66.8051 9.72656C65.5551 9.60938 64.712 9.08203 64.2758 8.14453C64.0349 7.6237 63.9145 6.87174 63.9145 5.88867V4.79492C63.9145 3.93555 63.8135 3.28451 63.6117 2.8418C63.2471 2.04753 62.5375 1.60482 61.4828 1.51367V0.400391C63.1625 0.537109 64.3018 1.05794 64.9008 1.96289C65.2914 2.54232 65.4867 3.41797 65.4867 4.58984V6.18164C65.4867 6.91081 65.5974 7.47721 65.8188 7.88086C66.2224 8.61654 67.0004 9.04622 68.1527 9.16992V10.2832C67.0069 10.4004 66.2289 10.8398 65.8188 11.6016C65.5974 12.0182 65.4867 12.5749 65.4867 13.2715V15.2832C65.4867 16.5983 65.1059 17.5293 64.3441 18.0762C63.5889 18.623 62.6352 18.9583 61.4828 19.082V17.9395C62.1794 17.8483 62.7589 17.5684 63.2211 17.0996C63.6833 16.6374 63.9145 15.9538 63.9145 15.0488V13.5742C63.9145 12.6367 64.0349 11.901 64.2758 11.3672C64.7185 10.3841 65.5616 9.83724 66.8051 9.72656Z" fill="url(#paint0_linear_4002_87)"/>
<defs>
<linearGradient id="paint0_linear_4002_87" x1="34.5" y1="-4" x2="34.5" y2="20" gradientUnits="userSpaceOnUse">
<stop stop-color="#FFD602"/>
<stop offset="0.0001" stop-color="#FFD602"/>
<stop offset="1" stop-color="#FFAE02"/>
</linearGradient>
</defs>
</svg>
